<svg xmlns="http://www.w3.org/2000/svg" xmlns:xlink="http://www.w3.org/1999/xlink" width="500" zoomAndPan="magnify" viewBox="0 0 375 374.999991" height="500" preserveAspectRatio="xMidYMid meet" version="1.0"><defs><g/><clipPath id="5cd7825dcc"><path d="M 37.554688 121.726562 L 117.863281 121.726562 L 117.863281 242.476562 L 37.554688 242.476562 Z M 37.554688 121.726562 " clip-rule="nonzero"/></clipPath></defs><g clip-path="url(#5cd7825dcc)"><path fill="#5558dd" d="M 89.058594 146.597656 C 89.058594 141.632812 93.078125 137.609375 98.042969 137.609375 C 103.003906 137.609375 107.027344 141.632812 107.027344 146.597656 C 107.027344 151.558594 103.003906 155.582031 98.042969 155.582031 C 93.078125 155.582031 89.058594 151.558594 89.058594 146.597656 Z M 100.003906 172.738281 C 109.289062 157.761719 125.300781 136.9375 113.585938 126.035156 C 107.035156 123.261719 99.832031 121.726562 92.265625 121.726562 C 90.378906 121.726562 88.515625 121.824219 86.675781 122.007812 C 66.878906 133.539062 81.019531 144.75 87.570312 160.386719 C 95.792969 180.019531 91.617188 191.757812 60.15625 193.839844 C 68.90625 198.453125 97.160156 201.105469 91.171875 219.894531 C 86.796875 201.796875 52.070312 206.628906 52.070312 193.691406 C 52.070312 180.09375 79.425781 190.113281 84.210938 178.101562 C 92.320312 157.734375 50.394531 136.640625 84.609375 122.261719 C 58.015625 125.988281 37.554688 148.824219 37.554688 176.441406 C 37.554688 206.660156 62.050781 231.15625 92.265625 231.15625 C 93.273438 231.15625 94.273438 231.125 95.265625 231.070312 C 96.328125 237.082031 96.636719 242.785156 96.636719 242.785156 C 97.902344 237.164062 98.304688 233.660156 98.316406 230.820312 C 98.328125 230.816406 98.339844 230.816406 98.351562 230.816406 C 98.339844 230.597656 98.328125 230.375 98.3125 230.15625 C 98.28125 228.253906 98.085938 226.613281 97.875 224.757812 C 97.820312 224.214844 97.761719 223.667969 97.699219 223.125 C 97.699219 223.125 97.699219 223.121094 97.699219 223.121094 C 95.730469 205.683594 91.132812 187.046875 100.003906 172.738281 " fill-opacity="1" fill-rule="nonzero"/></g><path fill="#50e0b6" d="M 129.273438 136.148438 C 127.785156 127.152344 114.652344 123.683594 114.652344 123.683594 C 118.710938 125.277344 121.820312 130.386719 121.820312 130.386719 C 127.835938 140.699219 115.679688 157.359375 103.941406 178.792969 C 96.46875 192.433594 104.703125 214.976562 100.785156 230.496094 C 126.957031 226.402344 146.980469 203.761719 146.980469 176.441406 C 146.980469 160.496094 140.15625 146.148438 129.273438 136.148438 " fill-opacity="1" fill-rule="nonzero"/><g fill="#5558dd" fill-opacity="1"><g transform="translate(150.931943, 184.261598)"><g><path d="M 0.875 0 L 0.875 -27.078125 C 0.875 -29.078125 1.253906 -30.957031 2.015625 -32.71875 C 2.785156 -34.488281 3.835938 -36.039062 5.171875 -37.375 C 6.515625 -38.71875 8.066406 -39.765625 9.828125 -40.515625 C 11.597656 -41.273438 13.484375 -41.65625 15.484375 -41.65625 L 26.28125 -41.65625 L 26.28125 -31.046875 L 15.484375 -31.046875 C 14.773438 -31.046875 14.128906 -30.867188 13.546875 -30.515625 C 12.972656 -30.160156 12.515625 -29.703125 12.171875 -29.140625 C 11.835938 -28.578125 11.671875 -27.945312 11.671875 -27.25 L 11.671875 -22.796875 L 23.90625 -22.796875 L 23.90625 -11.984375 L 11.671875 -11.984375 L 11.671875 0 Z M 0.875 0 "/></g></g></g><g fill="#5558dd" fill-opacity="1"><g transform="translate(181.679844, 184.261598)"><g><path d="M 1.984375 0 L 1.984375 -41.578125 L 12.890625 -41.578125 L 12.890625 0 Z M 1.984375 0 "/></g></g></g><g fill="#5558dd" fill-opacity="1"><g transform="translate(200.534016, 184.261598)"><g><path d="M 22.515625 -29.0625 C 22.304688 -29.695312 21.921875 -30.238281 21.359375 -30.6875 C 20.804688 -31.144531 20.171875 -31.382812 19.453125 -31.40625 L 13.703125 -31.40625 C 13.066406 -31.40625 12.550781 -31.21875 12.15625 -30.84375 C 11.769531 -30.476562 11.507812 -30.023438 11.375 -29.484375 C 11.25 -28.953125 11.25 -28.410156 11.375 -27.859375 C 11.507812 -27.316406 11.769531 -26.859375 12.15625 -26.484375 C 12.550781 -26.117188 13.066406 -25.9375 13.703125 -25.9375 L 18.96875 -25.9375 C 21.289062 -25.9375 23.328125 -25.570312 25.078125 -24.84375 C 26.835938 -24.125 28.316406 -23.144531 29.515625 -21.90625 C 30.722656 -20.664062 31.628906 -19.269531 32.234375 -17.71875 C 32.847656 -16.175781 33.164062 -14.59375 33.1875 -12.96875 C 33.207031 -11.320312 32.921875 -9.71875 32.328125 -8.15625 C 31.734375 -6.59375 30.84375 -5.175781 29.65625 -3.90625 C 28.476562 -2.644531 27.003906 -1.640625 25.234375 -0.890625 C 23.472656 -0.140625 21.429688 0.234375 19.109375 0.234375 L 14.953125 0.234375 C 13.347656 0.234375 11.78125 -0.0195312 10.25 -0.53125 C 8.71875 -1.039062 7.316406 -1.769531 6.046875 -2.71875 C 4.773438 -3.675781 3.695312 -4.8125 2.8125 -6.125 C 1.9375 -7.4375 1.347656 -8.894531 1.046875 -10.5 L 11.40625 -12.4375 C 11.613281 -11.789062 12 -11.242188 12.5625 -10.796875 C 13.132812 -10.359375 13.769531 -10.109375 14.46875 -10.046875 L 20.21875 -10.046875 C 20.863281 -10.046875 21.378906 -10.226562 21.765625 -10.59375 C 22.148438 -10.96875 22.40625 -11.425781 22.53125 -11.96875 C 22.65625 -12.519531 22.648438 -13.066406 22.515625 -13.609375 C 22.378906 -14.160156 22.125 -14.617188 21.75 -14.984375 C 21.375 -15.359375 20.863281 -15.546875 20.21875 -15.546875 L 14.953125 -15.546875 C 12.554688 -15.546875 10.457031 -15.910156 8.65625 -16.640625 C 6.851562 -17.378906 5.351562 -18.375 4.15625 -19.625 C 2.96875 -20.875 2.070312 -22.269531 1.46875 -23.8125 C 0.863281 -25.363281 0.539062 -26.96875 0.5 -28.625 C 0.46875 -30.289062 0.71875 -31.894531 1.25 -33.4375 C 1.789062 -34.988281 2.597656 -36.382812 3.671875 -37.625 C 4.753906 -38.875 6.109375 -39.867188 7.734375 -40.609375 C 9.359375 -41.347656 11.238281 -41.71875 13.375 -41.71875 L 18.96875 -41.71875 C 20.59375 -41.71875 22.164062 -41.460938 23.6875 -40.953125 C 25.207031 -40.441406 26.601562 -39.707031 27.875 -38.75 C 29.15625 -37.800781 30.21875 -36.671875 31.0625 -35.359375 C 31.914062 -34.046875 32.484375 -32.585938 32.765625 -30.984375 Z M 22.515625 -29.0625 "/></g></g></g><g fill="#5558dd" fill-opacity="1"><g transform="translate(238.361514, 184.261598)"><g><path d="M 1.984375 0 L 1.984375 -41.578125 L 12.890625 -41.578125 L 12.890625 0 Z M 1.984375 0 "/></g></g></g><g fill="#5558dd" fill-opacity="1"><g transform="translate(257.215689, 184.261598)"><g><path d="M 21.921875 -42.078125 C 24.296875 -42.078125 26.550781 -41.71875 28.6875 -41 C 30.820312 -40.289062 32.773438 -39.285156 34.546875 -37.984375 C 36.328125 -36.679688 37.867188 -35.132812 39.171875 -33.34375 C 40.472656 -31.5625 41.484375 -29.601562 42.203125 -27.46875 C 42.921875 -25.332031 43.28125 -23.085938 43.28125 -20.734375 C 43.28125 -18.390625 42.921875 -16.15625 42.203125 -14.03125 C 41.484375 -11.90625 40.472656 -9.957031 39.171875 -8.1875 C 37.867188 -6.425781 36.328125 -4.894531 34.546875 -3.59375 C 32.773438 -2.289062 30.820312 -1.28125 28.6875 -0.5625 C 26.550781 0.15625 24.296875 0.515625 21.921875 0.515625 C 19.578125 0.515625 17.34375 0.15625 15.21875 -0.5625 C 13.09375 -1.28125 11.144531 -2.289062 9.375 -3.59375 C 7.613281 -4.894531 6.082031 -6.425781 4.78125 -8.1875 C 3.476562 -9.957031 2.46875 -11.90625 1.75 -14.03125 C 1.039062 -16.15625 0.6875 -18.390625 0.6875 -20.734375 C 0.6875 -23.085938 1.039062 -25.332031 1.75 -27.46875 C 2.46875 -29.601562 3.476562 -31.5625 4.78125 -33.34375 C 6.082031 -35.132812 7.613281 -36.679688 9.375 -37.984375 C 11.144531 -39.285156 13.09375 -40.289062 15.21875 -41 C 17.34375 -41.71875 19.578125 -42.078125 21.921875 -42.078125 Z M 21.921875 -10.421875 C 23.390625 -10.421875 24.757812 -10.6875 26.03125 -11.21875 C 27.3125 -11.757812 28.421875 -12.503906 29.359375 -13.453125 C 30.304688 -14.410156 31.050781 -15.507812 31.59375 -16.75 C 32.132812 -17.988281 32.40625 -19.316406 32.40625 -20.734375 C 32.40625 -22.171875 32.132812 -23.515625 31.59375 -24.765625 C 31.050781 -26.023438 30.304688 -27.132812 29.359375 -28.09375 C 28.421875 -29.050781 27.3125 -29.800781 26.03125 -30.34375 C 24.757812 -30.882812 23.390625 -31.15625 21.921875 -31.15625 C 20.503906 -31.15625 19.175781 -30.882812 17.9375 -30.34375 C 16.707031 -29.800781 15.613281 -29.050781 14.65625 -28.09375 C 13.695312 -27.132812 12.945312 -26.023438 12.40625 -24.765625 C 11.875 -23.515625 11.609375 -22.171875 11.609375 -20.734375 C 11.609375 -19.316406 11.875 -17.988281 12.40625 -16.75 C 12.945312 -15.507812 13.695312 -14.410156 14.65625 -13.453125 C 15.613281 -12.503906 16.707031 -11.757812 17.9375 -11.21875 C 19.175781 -10.6875 20.503906 -10.421875 21.921875 -10.421875 Z M 21.921875 -10.421875 "/></g></g></g><g fill="#5558dd" fill-opacity="1"><g transform="translate(150.931943, 227.761595)"><g><path d="M 1.140625 0 L 1.109375 -41.484375 L 1.140625 -41.484375 L 1.140625 -41.515625 C 1.148438 -41.492188 1.175781 -41.484375 1.21875 -41.484375 L 11.953125 -41.484375 L 11.953125 -24.75 L 25.890625 -24.75 L 25.890625 -41.515625 C 25.898438 -41.492188 25.925781 -41.484375 25.96875 -41.484375 L 36.671875 -41.484375 L 36.671875 0 L 25.890625 0 L 25.890625 -14.53125 L 11.953125 -14.53125 L 11.953125 0 Z M 1.140625 0 "/></g></g></g><g fill="#5558dd" fill-opacity="1"><g transform="translate(192.695697, 227.761595)"><g><path d="M 21.921875 -42.078125 C 24.296875 -42.078125 26.550781 -41.71875 28.6875 -41 C 30.820312 -40.289062 32.773438 -39.285156 34.546875 -37.984375 C 36.328125 -36.679688 37.867188 -35.132812 39.171875 -33.34375 C 40.472656 -31.5625 41.484375 -29.601562 42.203125 -27.46875 C 42.921875 -25.332031 43.28125 -23.085938 43.28125 -20.734375 C 43.28125 -18.390625 42.921875 -16.15625 42.203125 -14.03125 C 41.484375 -11.90625 40.472656 -9.957031 39.171875 -8.1875 C 37.867188 -6.425781 36.328125 -4.894531 34.546875 -3.59375 C 32.773438 -2.289062 30.820312 -1.28125 28.6875 -0.5625 C 26.550781 0.15625 24.296875 0.515625 21.921875 0.515625 C 19.578125 0.515625 17.34375 0.15625 15.21875 -0.5625 C 13.09375 -1.28125 11.144531 -2.289062 9.375 -3.59375 C 7.613281 -4.894531 6.082031 -6.425781 4.78125 -8.1875 C 3.476562 -9.957031 2.46875 -11.90625 1.75 -14.03125 C 1.039062 -16.15625 0.6875 -18.390625 0.6875 -20.734375 C 0.6875 -23.085938 1.039062 -25.332031 1.75 -27.46875 C 2.46875 -29.601562 3.476562 -31.5625 4.78125 -33.34375 C 6.082031 -35.132812 7.613281 -36.679688 9.375 -37.984375 C 11.144531 -39.285156 13.09375 -40.289062 15.21875 -41 C 17.34375 -41.71875 19.578125 -42.078125 21.921875 -42.078125 Z M 21.921875 -10.421875 C 23.390625 -10.421875 24.757812 -10.6875 26.03125 -11.21875 C 27.3125 -11.757812 28.421875 -12.503906 29.359375 -13.453125 C 30.304688 -14.410156 31.050781 -15.507812 31.59375 -16.75 C 32.132812 -17.988281 32.40625 -19.316406 32.40625 -20.734375 C 32.40625 -22.171875 32.132812 -23.515625 31.59375 -24.765625 C 31.050781 -26.023438 30.304688 -27.132812 29.359375 -28.09375 C 28.421875 -29.050781 27.3125 -29.800781 26.03125 -30.34375 C 24.757812 -30.882812 23.390625 -31.15625 21.921875 -31.15625 C 20.503906 -31.15625 19.175781 -30.882812 17.9375 -30.34375 C 16.707031 -29.800781 15.613281 -29.050781 14.65625 -28.09375 C 13.695312 -27.132812 12.945312 -26.023438 12.40625 -24.765625 C 11.875 -23.515625 11.609375 -22.171875 11.609375 -20.734375 C 11.609375 -19.316406 11.875 -17.988281 12.40625 -16.75 C 12.945312 -15.507812 13.695312 -14.410156 14.65625 -13.453125 C 15.613281 -12.503906 16.707031 -11.757812 17.9375 -11.21875 C 19.175781 -10.6875 20.503906 -10.421875 21.921875 -10.421875 Z M 21.921875 -10.421875 "/></g></g></g><g fill="#5558dd" fill-opacity="1"><g transform="translate(241.001, 227.761595)"><g><path d="M 30.53125 0 L 31.203125 -22.96875 L 25.546875 -13.5625 C 24.660156 -12.28125 23.675781 -11.425781 22.59375 -11 C 21.519531 -10.570312 20.453125 -10.582031 19.390625 -11.03125 C 18.335938 -11.476562 17.390625 -12.359375 16.546875 -13.671875 L 10.984375 -22.265625 L 11.671875 0 L 0.6875 0 L 0.6875 -33.765625 C 0.6875 -35.421875 0.929688 -36.804688 1.421875 -37.921875 C 1.910156 -39.035156 2.554688 -39.910156 3.359375 -40.546875 C 4.160156 -41.191406 5.039062 -41.617188 6 -41.828125 C 6.96875 -42.035156 7.925781 -42.046875 8.875 -41.859375 C 9.832031 -41.671875 10.71875 -41.304688 11.53125 -40.765625 C 12.34375 -40.222656 12.992188 -39.539062 13.484375 -38.71875 L 21.078125 -25.453125 L 29.234375 -38.71875 C 29.722656 -39.539062 30.359375 -40.222656 31.140625 -40.765625 C 31.921875 -41.304688 32.773438 -41.671875 33.703125 -41.859375 C 34.628906 -42.046875 35.550781 -42.035156 36.46875 -41.828125 C 37.382812 -41.617188 38.21875 -41.191406 38.96875 -40.546875 C 39.726562 -39.910156 40.335938 -39.035156 40.796875 -37.921875 C 41.253906 -36.804688 41.484375 -35.421875 41.484375 -33.765625 L 41.515625 0 Z M 30.53125 0 "/></g></g></g><g fill="#5558dd" fill-opacity="1"><g transform="translate(287.918706, 227.761595)"><g><path d="M 30.15625 0.03125 L 15.515625 0.03125 C 13.554688 0.03125 11.707031 -0.34375 9.96875 -1.09375 C 8.226562 -1.851562 6.695312 -2.898438 5.375 -4.234375 C 4.0625 -5.566406 3.023438 -7.097656 2.265625 -8.828125 C 1.515625 -10.566406 1.140625 -12.410156 1.140625 -14.359375 L 1.140625 -27.046875 C 1.140625 -29.023438 1.515625 -30.890625 2.265625 -32.640625 C 3.023438 -34.390625 4.0625 -35.921875 5.375 -37.234375 C 6.695312 -38.554688 8.226562 -39.59375 9.96875 -40.34375 C 11.707031 -41.101562 13.554688 -41.484375 15.515625 -41.484375 L 30.15625 -41.484375 L 30.15625 -31.09375 L 15.515625 -31.09375 C 14.816406 -31.09375 14.179688 -30.910156 13.609375 -30.546875 C 13.046875 -30.191406 12.585938 -29.722656 12.234375 -29.140625 C 11.890625 -28.554688 11.71875 -27.914062 11.71875 -27.21875 L 11.71875 -25.546875 L 30.15625 -25.546875 L 30.15625 -15.6875 L 11.71875 -15.6875 L 11.71875 -14.296875 C 11.71875 -13.617188 11.890625 -12.972656 12.234375 -12.359375 C 12.585938 -11.742188 13.046875 -11.242188 13.609375 -10.859375 C 14.179688 -10.472656 14.816406 -10.28125 15.515625 -10.28125 L 30.15625 -10.28125 Z M 30.15625 0.03125 "/></g></g></g></svg>