<svg xmlns="http://www.w3.org/2000/svg" xmlns:xlink="http://www.w3.org/1999/xlink" width="500" zoomAndPan="magnify" viewBox="0 0 375 374.999991" height="500" preserveAspectRatio="xMidYMid meet" version="1.0"><defs><g/><clipPath id="fdf6c4ebac"><path d="M 123.152344 104.257812 L 203.460938 104.257812 L 203.460938 225.007812 L 123.152344 225.007812 Z M 123.152344 104.257812 " clip-rule="nonzero"/></clipPath><clipPath id="50a4a866a8"><path d="M 186 106 L 232.597656 106 L 232.597656 214 L 186 214 Z M 186 106 " clip-rule="nonzero"/></clipPath></defs><g clip-path="url(#fdf6c4ebac)"><path fill="#5558dd" d="M 174.65625 129.125 C 174.65625 124.164062 178.679688 120.140625 183.640625 120.140625 C 188.601562 120.140625 192.625 124.164062 192.625 129.125 C 192.625 134.089844 188.601562 138.113281 183.640625 138.113281 C 178.679688 138.113281 174.65625 134.089844 174.65625 129.125 Z M 185.601562 155.269531 C 194.886719 140.292969 210.898438 119.46875 199.183594 108.566406 C 192.632812 105.792969 185.429688 104.257812 177.867188 104.257812 C 175.976562 104.257812 174.113281 104.355469 172.273438 104.539062 C 152.476562 116.070312 166.617188 127.28125 173.167969 142.917969 C 181.390625 162.550781 177.214844 174.289062 145.753906 176.371094 C 154.503906 180.984375 182.757812 183.632812 176.769531 202.425781 C 172.394531 184.328125 137.667969 189.160156 137.667969 176.222656 C 137.667969 162.625 165.023438 172.644531 169.808594 160.632812 C 177.917969 140.265625 135.992188 119.171875 170.207031 104.792969 C 143.617188 108.519531 123.152344 131.355469 123.152344 158.972656 C 123.152344 189.191406 147.648438 213.6875 177.867188 213.6875 C 178.871094 213.6875 179.871094 213.65625 180.863281 213.601562 C 181.925781 219.613281 182.234375 225.316406 182.234375 225.316406 C 183.5 219.691406 183.902344 216.191406 183.914062 213.351562 C 183.925781 213.347656 183.9375 213.347656 183.949219 213.347656 C 183.9375 213.128906 183.925781 212.90625 183.914062 212.6875 C 183.882812 210.785156 183.683594 209.144531 183.472656 207.285156 C 183.417969 206.746094 183.359375 206.199219 183.296875 205.65625 C 183.296875 205.65625 183.296875 205.652344 183.296875 205.652344 C 181.328125 188.214844 176.730469 169.578125 185.601562 155.269531 " fill-opacity="1" fill-rule="nonzero"/></g><g clip-path="url(#50a4a866a8)"><path fill="#50e0b6" d="M 214.871094 118.679688 C 213.382812 109.683594 200.25 106.214844 200.25 106.214844 C 204.308594 107.808594 207.417969 112.917969 207.417969 112.917969 C 213.433594 123.230469 201.277344 139.890625 189.539062 161.324219 C 182.066406 174.964844 190.300781 197.507812 186.382812 213.023438 C 212.554688 208.933594 232.578125 186.292969 232.578125 158.972656 C 232.578125 143.027344 225.753906 128.679688 214.871094 118.679688 " fill-opacity="1" fill-rule="nonzero"/></g><g fill="#d9d9d9" fill-opacity="1"><g transform="translate(0.0000045, 371.349967)"><g><path d="M 1.1875 -0.828125 C 1.1875 -1.179688 1.265625 -1.445312 1.421875 -1.625 C 1.585938 -1.800781 1.816406 -1.890625 2.109375 -1.890625 C 2.410156 -1.890625 2.644531 -1.800781 2.8125 -1.625 C 2.988281 -1.445312 3.078125 -1.179688 3.078125 -0.828125 C 3.078125 -0.492188 2.988281 -0.234375 2.8125 -0.046875 C 2.644531 0.140625 2.410156 0.234375 2.109375 0.234375 C 1.847656 0.234375 1.628906 0.148438 1.453125 -0.015625 C 1.273438 -0.179688 1.1875 -0.453125 1.1875 -0.828125 Z M 1.1875 -0.828125 "/></g></g></g></svg>