<svg xmlns="http://www.w3.org/2000/svg" xmlns:xlink="http://www.w3.org/1999/xlink" width="500" zoomAndPan="magnify" viewBox="0 0 375 374.999991" height="500" preserveAspectRatio="xMidYMid meet" version="1.0"><defs><g/><clipPath id="ebc711f4d6"><path d="M 124.878906 126.976562 L 205.191406 126.976562 L 205.191406 247.726562 L 124.878906 247.726562 Z M 124.878906 126.976562 " clip-rule="nonzero"/></clipPath><clipPath id="bb499b6dfb"><path d="M 187 128 L 234.324219 128 L 234.324219 236 L 187 236 Z M 187 128 " clip-rule="nonzero"/></clipPath></defs><rect x="-37.5" width="450" fill="#ffffff" y="-37.499999" height="449.999989" fill-opacity="1"/><rect x="-37.5" width="450" fill="#fcfdff" y="-37.499999" height="449.999989" fill-opacity="1"/><g clip-path="url(#ebc711f4d6)"><path fill="#5558dd" d="M 176.382812 151.84375 C 176.382812 146.882812 180.40625 142.859375 185.367188 142.859375 C 190.332031 142.859375 194.355469 146.882812 194.355469 151.84375 C 194.355469 156.808594 190.332031 160.832031 185.367188 160.832031 C 180.40625 160.832031 176.382812 156.808594 176.382812 151.84375 Z M 187.328125 177.988281 C 196.613281 163.011719 212.625 142.1875 200.910156 131.285156 C 194.359375 128.511719 187.15625 126.976562 179.59375 126.976562 C 177.707031 126.976562 175.839844 127.074219 174.003906 127.257812 C 154.207031 138.789062 168.347656 150 174.894531 165.636719 C 183.117188 185.269531 178.941406 197.007812 147.480469 199.089844 C 156.230469 203.703125 184.484375 206.355469 178.496094 225.144531 C 174.121094 207.046875 139.394531 211.878906 139.394531 198.941406 C 139.394531 185.34375 166.75 195.363281 171.539062 183.351562 C 179.644531 162.984375 137.71875 141.890625 171.933594 127.511719 C 145.34375 131.238281 124.878906 154.074219 124.878906 181.691406 C 124.878906 211.910156 149.375 236.40625 179.59375 236.40625 C 180.597656 236.40625 181.597656 236.375 182.589844 236.320312 C 183.652344 242.332031 183.960938 248.035156 183.960938 248.035156 C 185.226562 242.414062 185.628906 238.910156 185.644531 236.070312 C 185.65625 236.066406 185.664062 236.066406 185.675781 236.066406 C 185.664062 235.847656 185.652344 235.625 185.640625 235.40625 C 185.609375 233.503906 185.410156 231.863281 185.199219 230.007812 C 185.144531 229.464844 185.085938 228.917969 185.023438 228.375 C 185.023438 228.375 185.023438 228.371094 185.023438 228.371094 C 183.058594 210.933594 178.460938 192.296875 187.328125 177.988281 " fill-opacity="1" fill-rule="nonzero"/></g><g clip-path="url(#bb499b6dfb)"><path fill="#50e0b6" d="M 216.597656 141.398438 C 215.109375 132.402344 201.976562 128.933594 201.976562 128.933594 C 206.035156 130.527344 209.144531 135.636719 209.144531 135.636719 C 215.160156 145.949219 203.007812 162.609375 191.265625 184.042969 C 183.792969 197.683594 192.027344 220.226562 188.109375 235.746094 C 214.28125 231.652344 234.308594 209.011719 234.308594 181.691406 C 234.308594 165.746094 227.480469 151.398438 216.597656 141.398438 " fill-opacity="1" fill-rule="nonzero"/></g><g fill="#fcfdff" fill-opacity="1"><g transform="translate(157.835531, 283.659825)"><g><path d="M 1.28125 0 L 0.9375 0 L 0.9375 -2.578125 L 0.03125 -2.578125 L 0.03125 -2.859375 L 2.1875 -2.859375 L 2.1875 -2.578125 L 1.28125 -2.578125 Z M 1.28125 0 "/></g></g><g transform="translate(160.058383, 283.659825)"><g><path d="M 1.25 0.046875 C 0.9375 0.046875 0.6875 -0.0507812 0.5 -0.25 C 0.3125 -0.445312 0.21875 -0.71875 0.21875 -1.0625 C 0.21875 -1.40625 0.300781 -1.675781 0.46875 -1.875 C 0.644531 -2.082031 0.878906 -2.1875 1.171875 -2.1875 C 1.441406 -2.1875 1.65625 -2.097656 1.8125 -1.921875 C 1.96875 -1.742188 2.046875 -1.507812 2.046875 -1.21875 L 2.046875 -1.015625 L 0.5625 -1.015625 C 0.570312 -0.765625 0.632812 -0.570312 0.75 -0.4375 C 0.875 -0.3125 1.046875 -0.25 1.265625 -0.25 C 1.492188 -0.25 1.722656 -0.296875 1.953125 -0.390625 L 1.953125 -0.09375 C 1.835938 -0.0507812 1.726562 -0.0195312 1.625 0 C 1.519531 0.03125 1.394531 0.046875 1.25 0.046875 Z M 1.171875 -1.921875 C 0.992188 -1.921875 0.851562 -1.863281 0.75 -1.75 C 0.644531 -1.632812 0.585938 -1.476562 0.578125 -1.28125 L 1.6875 -1.28125 C 1.6875 -1.488281 1.640625 -1.644531 1.546875 -1.75 C 1.460938 -1.863281 1.335938 -1.921875 1.171875 -1.921875 Z M 1.171875 -1.921875 "/></g></g><g transform="translate(162.312626, 283.659825)"><g><path d="M 0.859375 -1.09375 L 0.109375 -2.15625 L 0.484375 -2.15625 L 1.046875 -1.328125 L 1.625 -2.15625 L 1.984375 -2.15625 L 1.234375 -1.09375 L 2.03125 0 L 1.65625 0 L 1.046875 -0.875 L 0.4375 0 L 0.078125 0 Z M 0.859375 -1.09375 "/></g></g><g transform="translate(164.417763, 283.659825)"><g><path d="M 1.046875 -0.234375 C 1.097656 -0.234375 1.148438 -0.234375 1.203125 -0.234375 C 1.253906 -0.242188 1.296875 -0.253906 1.328125 -0.265625 L 1.328125 -0.015625 C 1.296875 -0.00390625 1.242188 0.00390625 1.171875 0.015625 C 1.109375 0.0351562 1.046875 0.046875 0.984375 0.046875 C 0.578125 0.046875 0.375 -0.175781 0.375 -0.625 L 0.375 -1.890625 L 0.0625 -1.890625 L 0.0625 -2.046875 L 0.375 -2.1875 L 0.5 -2.640625 L 0.6875 -2.640625 L 0.6875 -2.15625 L 1.3125 -2.15625 L 1.3125 -1.890625 L 0.6875 -1.890625 L 0.6875 -0.625 C 0.6875 -0.5 0.71875 -0.398438 0.78125 -0.328125 C 0.84375 -0.265625 0.929688 -0.234375 1.046875 -0.234375 Z M 1.046875 -0.234375 "/></g></g><g transform="translate(165.836229, 283.659825)"><g><path d="M 2.203125 -1.078125 C 2.203125 -0.722656 2.113281 -0.445312 1.9375 -0.25 C 1.757812 -0.0507812 1.515625 0.046875 1.203125 0.046875 C 1.015625 0.046875 0.84375 0 0.6875 -0.09375 C 0.539062 -0.1875 0.425781 -0.316406 0.34375 -0.484375 C 0.257812 -0.648438 0.21875 -0.847656 0.21875 -1.078125 C 0.21875 -1.429688 0.304688 -1.703125 0.484375 -1.890625 C 0.660156 -2.085938 0.90625 -2.1875 1.21875 -2.1875 C 1.519531 -2.1875 1.757812 -2.085938 1.9375 -1.890625 C 2.113281 -1.691406 2.203125 -1.421875 2.203125 -1.078125 Z M 0.5625 -1.078125 C 0.5625 -0.804688 0.613281 -0.597656 0.71875 -0.453125 C 0.832031 -0.304688 1 -0.234375 1.21875 -0.234375 C 1.425781 -0.234375 1.582031 -0.300781 1.6875 -0.4375 C 1.800781 -0.582031 1.859375 -0.796875 1.859375 -1.078125 C 1.859375 -1.347656 1.800781 -1.550781 1.6875 -1.6875 C 1.582031 -1.832031 1.421875 -1.90625 1.203125 -1.90625 C 0.992188 -1.90625 0.832031 -1.832031 0.71875 -1.6875 C 0.613281 -1.550781 0.5625 -1.347656 0.5625 -1.078125 Z M 0.5625 -1.078125 "/></g></g><g transform="translate(168.263121, 283.659825)"><g/></g><g transform="translate(169.306861, 283.659825)"><g><path d="M 1.8125 -0.28125 L 1.796875 -0.28125 C 1.640625 -0.0625 1.410156 0.046875 1.109375 0.046875 C 0.828125 0.046875 0.609375 -0.046875 0.453125 -0.234375 C 0.296875 -0.429688 0.21875 -0.707031 0.21875 -1.0625 C 0.21875 -1.414062 0.296875 -1.691406 0.453125 -1.890625 C 0.617188 -2.085938 0.835938 -2.1875 1.109375 -2.1875 C 1.398438 -2.1875 1.625 -2.082031 1.78125 -1.875 L 1.8125 -1.875 L 1.796875 -2.03125 L 1.796875 -3.046875 L 2.109375 -3.046875 L 2.109375 0 L 1.84375 0 Z M 1.15625 -0.234375 C 1.375 -0.234375 1.535156 -0.289062 1.640625 -0.40625 C 1.742188 -0.53125 1.796875 -0.726562 1.796875 -1 L 1.796875 -1.0625 C 1.796875 -1.375 1.742188 -1.59375 1.640625 -1.71875 C 1.535156 -1.851562 1.375 -1.921875 1.15625 -1.921875 C 0.957031 -1.921875 0.804688 -1.84375 0.703125 -1.6875 C 0.609375 -1.539062 0.5625 -1.332031 0.5625 -1.0625 C 0.5625 -0.789062 0.609375 -0.582031 0.703125 -0.4375 C 0.804688 -0.300781 0.957031 -0.234375 1.15625 -0.234375 Z M 1.15625 -0.234375 "/></g></g><g transform="translate(171.769067, 283.659825)"><g><path d="M 2.203125 -1.078125 C 2.203125 -0.722656 2.113281 -0.445312 1.9375 -0.25 C 1.757812 -0.0507812 1.515625 0.046875 1.203125 0.046875 C 1.015625 0.046875 0.84375 0 0.6875 -0.09375 C 0.539062 -0.1875 0.425781 -0.316406 0.34375 -0.484375 C 0.257812 -0.648438 0.21875 -0.847656 0.21875 -1.078125 C 0.21875 -1.429688 0.304688 -1.703125 0.484375 -1.890625 C 0.660156 -2.085938 0.90625 -2.1875 1.21875 -2.1875 C 1.519531 -2.1875 1.757812 -2.085938 1.9375 -1.890625 C 2.113281 -1.691406 2.203125 -1.421875 2.203125 -1.078125 Z M 0.5625 -1.078125 C 0.5625 -0.804688 0.613281 -0.597656 0.71875 -0.453125 C 0.832031 -0.304688 1 -0.234375 1.21875 -0.234375 C 1.425781 -0.234375 1.582031 -0.300781 1.6875 -0.4375 C 1.800781 -0.582031 1.859375 -0.796875 1.859375 -1.078125 C 1.859375 -1.347656 1.800781 -1.550781 1.6875 -1.6875 C 1.582031 -1.832031 1.421875 -1.90625 1.203125 -1.90625 C 0.992188 -1.90625 0.832031 -1.832031 0.71875 -1.6875 C 0.613281 -1.550781 0.5625 -1.347656 0.5625 -1.078125 Z M 0.5625 -1.078125 "/></g></g><g transform="translate(174.195959, 283.659825)"><g/></g><g transform="translate(175.239699, 283.659825)"><g><path d="M 1.734375 -0.59375 C 1.734375 -0.382812 1.65625 -0.222656 1.5 -0.109375 C 1.351562 -0.00390625 1.144531 0.046875 0.875 0.046875 C 0.59375 0.046875 0.375 0 0.21875 -0.09375 L 0.21875 -0.390625 C 0.320312 -0.335938 0.429688 -0.296875 0.546875 -0.265625 C 0.660156 -0.242188 0.773438 -0.234375 0.890625 -0.234375 C 1.054688 -0.234375 1.1875 -0.257812 1.28125 -0.3125 C 1.375 -0.363281 1.421875 -0.445312 1.421875 -0.5625 C 1.421875 -0.644531 1.382812 -0.710938 1.3125 -0.765625 C 1.238281 -0.828125 1.097656 -0.898438 0.890625 -0.984375 C 0.679688 -1.054688 0.535156 -1.117188 0.453125 -1.171875 C 0.367188 -1.234375 0.304688 -1.296875 0.265625 -1.359375 C 0.222656 -1.429688 0.203125 -1.519531 0.203125 -1.625 C 0.203125 -1.800781 0.273438 -1.9375 0.421875 -2.03125 C 0.566406 -2.132812 0.765625 -2.1875 1.015625 -2.1875 C 1.242188 -2.1875 1.46875 -2.140625 1.6875 -2.046875 L 1.578125 -1.78125 C 1.359375 -1.875 1.160156 -1.921875 0.984375 -1.921875 C 0.828125 -1.921875 0.707031 -1.894531 0.625 -1.84375 C 0.550781 -1.789062 0.515625 -1.722656 0.515625 -1.640625 C 0.515625 -1.585938 0.53125 -1.539062 0.5625 -1.5 C 0.59375 -1.457031 0.640625 -1.414062 0.703125 -1.375 C 0.765625 -1.34375 0.890625 -1.289062 1.078125 -1.21875 C 1.335938 -1.125 1.507812 -1.03125 1.59375 -0.9375 C 1.6875 -0.84375 1.734375 -0.726562 1.734375 -0.59375 Z M 1.734375 -0.59375 "/></g></g><g transform="translate(177.156492, 283.659825)"><g><path d="M 1.25 0.046875 C 0.9375 0.046875 0.6875 -0.0507812 0.5 -0.25 C 0.3125 -0.445312 0.21875 -0.71875 0.21875 -1.0625 C 0.21875 -1.40625 0.300781 -1.675781 0.46875 -1.875 C 0.644531 -2.082031 0.878906 -2.1875 1.171875 -2.1875 C 1.441406 -2.1875 1.65625 -2.097656 1.8125 -1.921875 C 1.96875 -1.742188 2.046875 -1.507812 2.046875 -1.21875 L 2.046875 -1.015625 L 0.5625 -1.015625 C 0.570312 -0.765625 0.632812 -0.570312 0.75 -0.4375 C 0.875 -0.3125 1.046875 -0.25 1.265625 -0.25 C 1.492188 -0.25 1.722656 -0.296875 1.953125 -0.390625 L 1.953125 -0.09375 C 1.835938 -0.0507812 1.726562 -0.0195312 1.625 0 C 1.519531 0.03125 1.394531 0.046875 1.25 0.046875 Z M 1.171875 -1.921875 C 0.992188 -1.921875 0.851562 -1.863281 0.75 -1.75 C 0.644531 -1.632812 0.585938 -1.476562 0.578125 -1.28125 L 1.6875 -1.28125 C 1.6875 -1.488281 1.640625 -1.644531 1.546875 -1.75 C 1.460938 -1.863281 1.335938 -1.921875 1.171875 -1.921875 Z M 1.171875 -1.921875 "/></g></g><g transform="translate(179.410735, 283.659825)"><g><path d="M 0.65625 -2.15625 L 0.65625 -0.75 C 0.65625 -0.570312 0.691406 -0.441406 0.765625 -0.359375 C 0.847656 -0.273438 0.972656 -0.234375 1.140625 -0.234375 C 1.367188 -0.234375 1.535156 -0.296875 1.640625 -0.421875 C 1.742188 -0.546875 1.796875 -0.742188 1.796875 -1.015625 L 1.796875 -2.15625 L 2.125 -2.15625 L 2.125 0 L 1.84375 0 L 1.796875 -0.28125 L 1.78125 -0.28125 C 1.71875 -0.175781 1.625 -0.09375 1.5 -0.03125 C 1.382812 0.0195312 1.253906 0.046875 1.109375 0.046875 C 0.847656 0.046875 0.648438 -0.015625 0.515625 -0.140625 C 0.390625 -0.265625 0.328125 -0.46875 0.328125 -0.75 L 0.328125 -2.15625 Z M 0.65625 -2.15625 "/></g></g><g transform="translate(181.876865, 283.659825)"><g/></g><g transform="translate(182.920605, 283.659825)"><g><path d="M 1.34375 0.046875 C 1.207031 0.046875 1.078125 0.0195312 0.953125 -0.03125 C 0.835938 -0.0820312 0.742188 -0.164062 0.671875 -0.28125 L 0.640625 -0.28125 C 0.660156 -0.15625 0.671875 -0.0351562 0.671875 0.078125 L 0.671875 0.96875 L 0.34375 0.96875 L 0.34375 -2.15625 L 0.609375 -2.15625 L 0.65625 -1.859375 L 0.671875 -1.859375 C 0.753906 -1.972656 0.847656 -2.054688 0.953125 -2.109375 C 1.066406 -2.160156 1.195312 -2.1875 1.34375 -2.1875 C 1.625 -2.1875 1.84375 -2.085938 2 -1.890625 C 2.15625 -1.703125 2.234375 -1.429688 2.234375 -1.078125 C 2.234375 -0.722656 2.15625 -0.445312 2 -0.25 C 1.84375 -0.0507812 1.625 0.046875 1.34375 0.046875 Z M 1.296875 -1.90625 C 1.078125 -1.90625 0.914062 -1.84375 0.8125 -1.71875 C 0.71875 -1.601562 0.671875 -1.414062 0.671875 -1.15625 L 0.671875 -1.078125 C 0.671875 -0.773438 0.71875 -0.554688 0.8125 -0.421875 C 0.914062 -0.296875 1.082031 -0.234375 1.3125 -0.234375 C 1.488281 -0.234375 1.628906 -0.304688 1.734375 -0.453125 C 1.847656 -0.609375 1.90625 -0.816406 1.90625 -1.078125 C 1.90625 -1.347656 1.847656 -1.550781 1.734375 -1.6875 C 1.628906 -1.832031 1.484375 -1.90625 1.296875 -1.90625 Z M 1.296875 -1.90625 "/></g></g><g transform="translate(185.382811, 283.659825)"><g><path d="M 1.671875 0 L 1.609375 -0.3125 L 1.59375 -0.3125 C 1.476562 -0.175781 1.367188 -0.0820312 1.265625 -0.03125 C 1.160156 0.0195312 1.023438 0.046875 0.859375 0.046875 C 0.648438 0.046875 0.484375 -0.0078125 0.359375 -0.125 C 0.242188 -0.238281 0.1875 -0.394531 0.1875 -0.59375 C 0.1875 -1.03125 0.53125 -1.257812 1.21875 -1.28125 L 1.59375 -1.28125 L 1.59375 -1.421875 C 1.59375 -1.585938 1.554688 -1.710938 1.484375 -1.796875 C 1.410156 -1.878906 1.296875 -1.921875 1.140625 -1.921875 C 0.953125 -1.921875 0.75 -1.863281 0.53125 -1.75 L 0.421875 -2 C 0.523438 -2.0625 0.640625 -2.109375 0.765625 -2.140625 C 0.898438 -2.171875 1.03125 -2.1875 1.15625 -2.1875 C 1.40625 -2.1875 1.59375 -2.128906 1.71875 -2.015625 C 1.84375 -1.898438 1.90625 -1.71875 1.90625 -1.46875 L 1.90625 0 Z M 0.9375 -0.234375 C 1.132812 -0.234375 1.289062 -0.285156 1.40625 -0.390625 C 1.519531 -0.503906 1.578125 -0.660156 1.578125 -0.859375 L 1.578125 -1.0625 L 1.25 -1.046875 C 1 -1.035156 0.816406 -0.992188 0.703125 -0.921875 C 0.585938 -0.847656 0.53125 -0.738281 0.53125 -0.59375 C 0.53125 -0.46875 0.5625 -0.375 0.625 -0.3125 C 0.695312 -0.257812 0.800781 -0.234375 0.9375 -0.234375 Z M 0.9375 -0.234375 "/></g></g><g transform="translate(187.617435, 283.659825)"><g><path d="M 1.328125 -2.1875 C 1.421875 -2.1875 1.503906 -2.179688 1.578125 -2.171875 L 1.53125 -1.859375 C 1.445312 -1.878906 1.367188 -1.890625 1.296875 -1.890625 C 1.128906 -1.890625 0.984375 -1.816406 0.859375 -1.671875 C 0.734375 -1.535156 0.671875 -1.363281 0.671875 -1.15625 L 0.671875 0 L 0.34375 0 L 0.34375 -2.15625 L 0.609375 -2.15625 L 0.65625 -1.75 L 0.671875 -1.75 C 0.742188 -1.882812 0.835938 -1.988281 0.953125 -2.0625 C 1.066406 -2.144531 1.191406 -2.1875 1.328125 -2.1875 Z M 1.328125 -2.1875 "/></g></g><g transform="translate(189.257598, 283.659825)"><g><path d="M 1.671875 0 L 1.609375 -0.3125 L 1.59375 -0.3125 C 1.476562 -0.175781 1.367188 -0.0820312 1.265625 -0.03125 C 1.160156 0.0195312 1.023438 0.046875 0.859375 0.046875 C 0.648438 0.046875 0.484375 -0.0078125 0.359375 -0.125 C 0.242188 -0.238281 0.1875 -0.394531 0.1875 -0.59375 C 0.1875 -1.03125 0.53125 -1.257812 1.21875 -1.28125 L 1.59375 -1.28125 L 1.59375 -1.421875 C 1.59375 -1.585938 1.554688 -1.710938 1.484375 -1.796875 C 1.410156 -1.878906 1.296875 -1.921875 1.140625 -1.921875 C 0.953125 -1.921875 0.75 -1.863281 0.53125 -1.75 L 0.421875 -2 C 0.523438 -2.0625 0.640625 -2.109375 0.765625 -2.140625 C 0.898438 -2.171875 1.03125 -2.1875 1.15625 -2.1875 C 1.40625 -2.1875 1.59375 -2.128906 1.71875 -2.015625 C 1.84375 -1.898438 1.90625 -1.71875 1.90625 -1.46875 L 1.90625 0 Z M 0.9375 -0.234375 C 1.132812 -0.234375 1.289062 -0.285156 1.40625 -0.390625 C 1.519531 -0.503906 1.578125 -0.660156 1.578125 -0.859375 L 1.578125 -1.0625 L 1.25 -1.046875 C 1 -1.035156 0.816406 -0.992188 0.703125 -0.921875 C 0.585938 -0.847656 0.53125 -0.738281 0.53125 -0.59375 C 0.53125 -0.46875 0.5625 -0.375 0.625 -0.3125 C 0.695312 -0.257812 0.800781 -0.234375 0.9375 -0.234375 Z M 0.84375 -2.484375 C 0.90625 -2.566406 0.972656 -2.664062 1.046875 -2.78125 C 1.117188 -2.894531 1.175781 -2.992188 1.21875 -3.078125 L 1.625 -3.078125 L 1.625 -3.03125 C 1.5625 -2.945312 1.472656 -2.84375 1.359375 -2.71875 C 1.242188 -2.59375 1.144531 -2.5 1.0625 -2.4375 L 0.84375 -2.4375 Z M 0.84375 -2.484375 "/></g></g><g transform="translate(191.492221, 283.659825)"><g><path d="M 2.109375 -2.15625 L 2.109375 -1.9375 L 1.703125 -1.890625 C 1.742188 -1.847656 1.773438 -1.789062 1.796875 -1.71875 C 1.828125 -1.644531 1.84375 -1.5625 1.84375 -1.46875 C 1.84375 -1.257812 1.769531 -1.09375 1.625 -0.96875 C 1.488281 -0.84375 1.296875 -0.78125 1.046875 -0.78125 C 0.972656 -0.78125 0.910156 -0.785156 0.859375 -0.796875 C 0.722656 -0.722656 0.65625 -0.628906 0.65625 -0.515625 C 0.65625 -0.453125 0.675781 -0.40625 0.71875 -0.375 C 0.769531 -0.351562 0.851562 -0.34375 0.96875 -0.34375 L 1.359375 -0.34375 C 1.585938 -0.34375 1.765625 -0.289062 1.890625 -0.1875 C 2.015625 -0.09375 2.078125 0.046875 2.078125 0.234375 C 2.078125 0.472656 1.976562 0.65625 1.78125 0.78125 C 1.59375 0.90625 1.316406 0.96875 0.953125 0.96875 C 0.671875 0.96875 0.453125 0.914062 0.296875 0.8125 C 0.148438 0.707031 0.078125 0.554688 0.078125 0.359375 C 0.078125 0.234375 0.117188 0.117188 0.203125 0.015625 C 0.285156 -0.078125 0.40625 -0.140625 0.5625 -0.171875 C 0.5 -0.191406 0.445312 -0.226562 0.40625 -0.28125 C 0.375 -0.332031 0.359375 -0.394531 0.359375 -0.46875 C 0.359375 -0.539062 0.378906 -0.609375 0.421875 -0.671875 C 0.460938 -0.734375 0.53125 -0.789062 0.625 -0.84375 C 0.507812 -0.882812 0.414062 -0.957031 0.34375 -1.0625 C 0.28125 -1.175781 0.25 -1.304688 0.25 -1.453125 C 0.25 -1.691406 0.316406 -1.875 0.453125 -2 C 0.597656 -2.125 0.800781 -2.1875 1.0625 -2.1875 C 1.164062 -2.1875 1.265625 -2.175781 1.359375 -2.15625 Z M 0.390625 0.359375 C 0.390625 0.472656 0.4375 0.5625 0.53125 0.625 C 0.632812 0.6875 0.773438 0.71875 0.953125 0.71875 C 1.234375 0.71875 1.4375 0.675781 1.5625 0.59375 C 1.695312 0.507812 1.765625 0.398438 1.765625 0.265625 C 1.765625 0.148438 1.726562 0.0664062 1.65625 0.015625 C 1.582031 -0.0234375 1.445312 -0.046875 1.25 -0.046875 L 0.859375 -0.046875 C 0.710938 -0.046875 0.597656 -0.015625 0.515625 0.046875 C 0.429688 0.117188 0.390625 0.222656 0.390625 0.359375 Z M 0.5625 -1.453125 C 0.5625 -1.304688 0.601562 -1.191406 0.6875 -1.109375 C 0.78125 -1.035156 0.898438 -1 1.046875 -1 C 1.367188 -1 1.53125 -1.15625 1.53125 -1.46875 C 1.53125 -1.789062 1.367188 -1.953125 1.046875 -1.953125 C 0.890625 -1.953125 0.769531 -1.910156 0.6875 -1.828125 C 0.601562 -1.742188 0.5625 -1.617188 0.5625 -1.453125 Z M 0.5625 -1.453125 "/></g></g><g transform="translate(193.693492, 283.659825)"><g><path d="M 1.328125 -2.1875 C 1.421875 -2.1875 1.503906 -2.179688 1.578125 -2.171875 L 1.53125 -1.859375 C 1.445312 -1.878906 1.367188 -1.890625 1.296875 -1.890625 C 1.128906 -1.890625 0.984375 -1.816406 0.859375 -1.671875 C 0.734375 -1.535156 0.671875 -1.363281 0.671875 -1.15625 L 0.671875 0 L 0.34375 0 L 0.34375 -2.15625 L 0.609375 -2.15625 L 0.65625 -1.75 L 0.671875 -1.75 C 0.742188 -1.882812 0.835938 -1.988281 0.953125 -2.0625 C 1.066406 -2.144531 1.191406 -2.1875 1.328125 -2.1875 Z M 1.328125 -2.1875 "/></g></g><g transform="translate(195.333655, 283.659825)"><g><path d="M 1.671875 0 L 1.609375 -0.3125 L 1.59375 -0.3125 C 1.476562 -0.175781 1.367188 -0.0820312 1.265625 -0.03125 C 1.160156 0.0195312 1.023438 0.046875 0.859375 0.046875 C 0.648438 0.046875 0.484375 -0.0078125 0.359375 -0.125 C 0.242188 -0.238281 0.1875 -0.394531 0.1875 -0.59375 C 0.1875 -1.03125 0.53125 -1.257812 1.21875 -1.28125 L 1.59375 -1.28125 L 1.59375 -1.421875 C 1.59375 -1.585938 1.554688 -1.710938 1.484375 -1.796875 C 1.410156 -1.878906 1.296875 -1.921875 1.140625 -1.921875 C 0.953125 -1.921875 0.75 -1.863281 0.53125 -1.75 L 0.421875 -2 C 0.523438 -2.0625 0.640625 -2.109375 0.765625 -2.140625 C 0.898438 -2.171875 1.03125 -2.1875 1.15625 -2.1875 C 1.40625 -2.1875 1.59375 -2.128906 1.71875 -2.015625 C 1.84375 -1.898438 1.90625 -1.71875 1.90625 -1.46875 L 1.90625 0 Z M 0.9375 -0.234375 C 1.132812 -0.234375 1.289062 -0.285156 1.40625 -0.390625 C 1.519531 -0.503906 1.578125 -0.660156 1.578125 -0.859375 L 1.578125 -1.0625 L 1.25 -1.046875 C 1 -1.035156 0.816406 -0.992188 0.703125 -0.921875 C 0.585938 -0.847656 0.53125 -0.738281 0.53125 -0.59375 C 0.53125 -0.46875 0.5625 -0.375 0.625 -0.3125 C 0.695312 -0.257812 0.800781 -0.234375 0.9375 -0.234375 Z M 0.9375 -0.234375 "/></g></g><g transform="translate(197.568279, 283.659825)"><g><path d="M 1.3125 -1.890625 L 0.765625 -1.890625 L 0.765625 0 L 0.4375 0 L 0.4375 -1.890625 L 0.0625 -1.890625 L 0.0625 -2.046875 L 0.4375 -2.15625 L 0.4375 -2.28125 C 0.4375 -2.8125 0.671875 -3.078125 1.140625 -3.078125 C 1.242188 -3.078125 1.375 -3.050781 1.53125 -3 L 1.453125 -2.75 C 1.328125 -2.78125 1.21875 -2.796875 1.125 -2.796875 C 1 -2.796875 0.90625 -2.753906 0.84375 -2.671875 C 0.789062 -2.597656 0.765625 -2.46875 0.765625 -2.28125 L 0.765625 -2.15625 L 1.3125 -2.15625 Z M 1.3125 -1.890625 "/></g></g><g transform="translate(198.92985, 283.659825)"><g><path d="M 2.203125 -1.078125 C 2.203125 -0.722656 2.113281 -0.445312 1.9375 -0.25 C 1.757812 -0.0507812 1.515625 0.046875 1.203125 0.046875 C 1.015625 0.046875 0.84375 0 0.6875 -0.09375 C 0.539062 -0.1875 0.425781 -0.316406 0.34375 -0.484375 C 0.257812 -0.648438 0.21875 -0.847656 0.21875 -1.078125 C 0.21875 -1.429688 0.304688 -1.703125 0.484375 -1.890625 C 0.660156 -2.085938 0.90625 -2.1875 1.21875 -2.1875 C 1.519531 -2.1875 1.757812 -2.085938 1.9375 -1.890625 C 2.113281 -1.691406 2.203125 -1.421875 2.203125 -1.078125 Z M 0.5625 -1.078125 C 0.5625 -0.804688 0.613281 -0.597656 0.71875 -0.453125 C 0.832031 -0.304688 1 -0.234375 1.21875 -0.234375 C 1.425781 -0.234375 1.582031 -0.300781 1.6875 -0.4375 C 1.800781 -0.582031 1.859375 -0.796875 1.859375 -1.078125 C 1.859375 -1.347656 1.800781 -1.550781 1.6875 -1.6875 C 1.582031 -1.832031 1.421875 -1.90625 1.203125 -1.90625 C 0.992188 -1.90625 0.832031 -1.832031 0.71875 -1.6875 C 0.613281 -1.550781 0.5625 -1.347656 0.5625 -1.078125 Z M 0.5625 -1.078125 "/></g></g></g></svg>