<svg xmlns="http://www.w3.org/2000/svg" xmlns:xlink="http://www.w3.org/1999/xlink" width="500" zoomAndPan="magnify" viewBox="0 0 375 374.999991" height="500" preserveAspectRatio="xMidYMid meet" version="1.0"><defs><clipPath id="306091b3a8"><path d="M 123.152344 104.257812 L 203.460938 104.257812 L 203.460938 225.007812 L 123.152344 225.007812 Z M 123.152344 104.257812 " clip-rule="nonzero"/></clipPath><clipPath id="bc9ba1e71d"><path d="M 186 106 L 232.597656 106 L 232.597656 214 L 186 214 Z M 186 106 " clip-rule="nonzero"/></clipPath><clipPath id="034b099295"><path d="M 193.660156 175.75 L 208.917969 175.75 L 208.917969 181.429688 L 193.660156 181.429688 Z M 193.660156 175.75 " clip-rule="nonzero"/></clipPath><clipPath id="349c8197ba"><path d="M 195.976562 176.699219 C 207.824219 176.023438 208.125 176.324219 208.425781 176.773438 C 208.800781 177.300781 209.023438 178.351562 208.800781 178.949219 C 208.5 179.699219 207.148438 180.601562 206.324219 180.601562 C 205.648438 180.601562 204.75 180 204.449219 179.398438 C 204.074219 178.875 204 177.75 204.300781 177.148438 C 204.601562 176.550781 205.5 175.875 206.101562 175.800781 C 206.773438 175.726562 207.824219 176.023438 208.273438 176.550781 C 208.726562 177 208.949219 178.125 208.875 178.726562 C 208.800781 179.25 208.574219 179.699219 208.050781 180 C 206.851562 180.824219 202.648438 181.273438 200.25 181.351562 C 198.148438 181.425781 195.375 181.574219 194.398438 180.75 C 193.726562 180.226562 193.5 178.875 193.800781 178.199219 C 194.023438 177.523438 195.976562 176.699219 195.976562 176.699219 " clip-rule="nonzero"/></clipPath><clipPath id="9601a3201a"><path d="M 209.6875 177.402344 L 213.949219 177.402344 L 213.949219 181.046875 L 209.6875 181.046875 Z M 209.6875 177.402344 " clip-rule="nonzero"/></clipPath><clipPath id="681918084a"><path d="M 213.9375 178.726562 C 212.0625 181.726562 210.261719 181.199219 209.886719 180.523438 C 209.511719 179.925781 209.8125 178.050781 210.414062 177.601562 C 211.011719 177.148438 213.414062 177.75 213.414062 177.75 " clip-rule="nonzero"/></clipPath></defs><g clip-path="url(#306091b3a8)"><path fill="#5558dd" d="M 174.65625 129.125 C 174.65625 124.164062 178.679688 120.140625 183.640625 120.140625 C 188.601562 120.140625 192.625 124.164062 192.625 129.125 C 192.625 134.089844 188.601562 138.113281 183.640625 138.113281 C 178.679688 138.113281 174.65625 134.089844 174.65625 129.125 Z M 185.601562 155.269531 C 194.886719 140.292969 210.898438 119.46875 199.183594 108.566406 C 192.632812 105.792969 185.429688 104.257812 177.867188 104.257812 C 175.976562 104.257812 174.113281 104.355469 172.273438 104.539062 C 152.476562 116.070312 166.617188 127.28125 173.167969 142.917969 C 181.390625 162.550781 177.214844 174.289062 145.753906 176.371094 C 154.503906 180.984375 182.757812 183.632812 176.769531 202.425781 C 172.394531 184.328125 137.667969 189.160156 137.667969 176.222656 C 137.667969 162.625 165.023438 172.644531 169.808594 160.632812 C 177.917969 140.265625 135.992188 119.171875 170.207031 104.792969 C 143.617188 108.519531 123.152344 131.355469 123.152344 158.972656 C 123.152344 189.191406 147.648438 213.6875 177.867188 213.6875 C 178.871094 213.6875 179.871094 213.65625 180.863281 213.601562 C 181.925781 219.613281 182.234375 225.316406 182.234375 225.316406 C 183.5 219.691406 183.902344 216.191406 183.914062 213.351562 C 183.925781 213.347656 183.9375 213.347656 183.949219 213.347656 C 183.9375 213.128906 183.925781 212.90625 183.914062 212.6875 C 183.882812 210.785156 183.683594 209.144531 183.472656 207.285156 C 183.417969 206.746094 183.359375 206.199219 183.296875 205.65625 C 183.296875 205.65625 183.296875 205.652344 183.296875 205.652344 C 181.328125 188.214844 176.730469 169.578125 185.601562 155.269531 " fill-opacity="1" fill-rule="nonzero"/></g><g clip-path="url(#bc9ba1e71d)"><path fill="#50e0b6" d="M 214.871094 118.679688 C 213.382812 109.683594 200.25 106.214844 200.25 106.214844 C 204.308594 107.808594 207.417969 112.917969 207.417969 112.917969 C 213.433594 123.230469 201.277344 139.890625 189.539062 161.324219 C 182.066406 174.964844 190.300781 197.507812 186.382812 213.023438 C 212.554688 208.933594 232.578125 186.292969 232.578125 158.972656 C 232.578125 143.027344 225.753906 128.679688 214.871094 118.679688 " fill-opacity="1" fill-rule="nonzero"/></g><g clip-path="url(#034b099295)"><g clip-path="url(#349c8197ba)"><path fill="#50e0b6" d="M 190.800781 172.800781 L 211.960938 172.800781 L 211.960938 184.425781 L 190.800781 184.425781 Z M 190.800781 172.800781 " fill-opacity="1" fill-rule="nonzero"/></g></g><g clip-path="url(#9601a3201a)"><g clip-path="url(#681918084a)"><path fill="#50e0b6" d="M 206.886719 174.601562 L 217.019531 174.601562 L 217.019531 184.425781 L 206.886719 184.425781 Z M 206.886719 174.601562 " fill-opacity="1" fill-rule="nonzero"/></g></g></svg>